<svg id="wave" style="transform:rotate(0deg); transition: 0.3s" viewBox="0 0 1440 140" version="1.1" xmlns="http://www.w3.org/2000/svg"><defs><linearGradient id="sw-gradient-0" x1="0" x2="0" y1="1" y2="0"><stop stop-color="#124f88" offset="0%"></stop><stop stop-color="#124f88" offset="100%"></stop></linearGradient></defs><path style="transform:translate(0, 0px); opacity:1" fill="url(#sw-gradient-0)" d="M0,84L60,79.3C120,75,240,65,360,70C480,75,600,93,720,102.7C840,112,960,112,1080,107.3C1200,103,1320,93,1440,86.3C1560,79,1680,75,1800,65.3C1920,56,2040,42,2160,30.3C2280,19,2400,9,2520,9.3C2640,9,2760,19,2880,25.7C3000,33,3120,37,3240,42C3360,47,3480,51,3600,51.3C3720,51,3840,47,3960,46.7C4080,47,4200,51,4320,51.3C4440,51,4560,47,4680,51.3C4800,56,4920,70,5040,63C5160,56,5280,28,5400,14C5520,0,5640,0,5760,21C5880,42,6000,84,6120,91C6240,98,6360,70,6480,60.7C6600,51,6720,61,6840,56C6960,51,7080,33,7200,30.3C7320,28,7440,42,7560,60.7C7680,79,7800,103,7920,112C8040,121,8160,117,8280,109.7C8400,103,8520,93,8580,88.7L8640,84L8640,140L8580,140C8520,140,8400,140,8280,140C8160,140,8040,140,7920,140C7800,140,7680,140,7560,140C7440,140,7320,140,7200,140C7080,140,6960,140,6840,140C6720,140,6600,140,6480,140C6360,140,6240,140,6120,140C6000,140,5880,140,5760,140C5640,140,5520,140,5400,140C5280,140,5160,140,5040,140C4920,140,4800,140,4680,140C4560,140,4440,140,4320,140C4200,140,4080,140,3960,140C3840,140,3720,140,3600,140C3480,140,3360,140,3240,140C3120,140,3000,140,2880,140C2760,140,2640,140,2520,140C2400,140,2280,140,2160,140C2040,140,1920,140,1800,140C1680,140,1560,140,1440,140C1320,140,1200,140,1080,140C960,140,840,140,720,140C600,140,480,140,360,140C240,140,120,140,60,140L0,140Z"></path></svg>